<?xml version="1.0" encoding="UTF-8" standalone="no"?>
<!-- Created with Inkscape (http://www.inkscape.org/) -->

<svg
   width="1024"
   height="1024"
   viewBox="0 0 1024 1024"
   version="1.1"
   id="svg5"
   inkscape:version="1.2.1 (1:1.2.1+202210291244+9c6d41e410)"
   sodipodi:docname="joystick.svg"
   inkscape:export-filename="../deploy/Data/Textures/joystick.png"
   inkscape:export-xdpi="96"
   inkscape:export-ydpi="96"
   xmlns:inkscape="http://www.inkscape.org/namespaces/inkscape"
   xmlns:sodipodi="http://sodipodi.sourceforge.net/DTD/sodipodi-0.dtd"
   xmlns="http://www.w3.org/2000/svg"
   xmlns:svg="http://www.w3.org/2000/svg">
  <sodipodi:namedview
     id="namedview7"
     pagecolor="#ffffff"
     bordercolor="#000000"
     borderopacity="0.25"
     inkscape:showpageshadow="2"
     inkscape:pageopacity="0.0"
     inkscape:pagecheckerboard="false"
     inkscape:deskcolor="#d1d1d1"
     inkscape:document-units="px"
     showgrid="true"
     showborder="true"
     shape-rendering="auto"
     inkscape:lockguides="false"
     inkscape:zoom="0.70710678"
     inkscape:cx="326.68333"
     inkscape:cy="565.68543"
     inkscape:window-width="1915"
     inkscape:window-height="1419"
     inkscape:window-x="946"
     inkscape:window-y="112"
     inkscape:window-maximized="0"
     inkscape:current-layer="layer3">
    <inkscape:grid
       type="xygrid"
       id="grid391"
       originx="0"
       originy="0" />
  </sodipodi:namedview>
  <defs
     id="defs2" />
  <g
     inkscape:groupmode="layer"
     id="layer4"
     inkscape:label="Layer 3"
     style="fill:none;stroke:#000000;stroke-width:2.1;stroke-dasharray:none;stroke-opacity:1" />
  <g
     inkscape:label="Layer 1"
     inkscape:groupmode="layer"
     id="layer1">
    <path
       style="fill:#c8c8c8;fill-opacity:1;stroke:#555555;stroke-width:2.00001;stroke-dasharray:none;stroke-dashoffset:0;stroke-opacity:1"
       id="path6122"
       sodipodi:type="arc"
       sodipodi:cx="200.00169"
       sodipodi:cy="199.99837"
       sodipodi:rx="198.97058"
       sodipodi:ry="198.96892"
       sodipodi:start="0.18610193"
       sodipodi:end="0.15654302"
       sodipodi:open="true"
       sodipodi:arc-type="chord"
       d="M 395.53664,236.8135 A 198.97058,198.96892 0 0 1 164.6322,395.79839 198.97058,198.96892 0 0 1 3.944009,166.07703 198.97058,198.96892 0 0 1 232.47359,3.6970074 198.97058,198.96892 0 0 1 396.53929,231.0185 Z" />
  </g>
  <g
     inkscape:groupmode="layer"
     id="layer3"
     inkscape:label="Layer 2">
    <path
       style="fill:#858585;fill-opacity:1;stroke:#e5e5e5;stroke-width:2.00003;stroke-dasharray:none;stroke-dashoffset:0;stroke-opacity:1"
       id="path6351"
       sodipodi:type="arc"
       sodipodi:cx="200.00124"
       sodipodi:cy="199.99879"
       sodipodi:rx="148.9781"
       sodipodi:ry="148.9769"
       sodipodi:start="0.18610193"
       sodipodi:end="0.15654302"
       sodipodi:open="true"
       sodipodi:arc-type="chord"
       d="M 346.40693,227.56392 A 148.9781,148.9769 0 0 1 173.51853,346.603 148.9781,148.9769 0 0 1 53.204147,174.60038 148.9781,148.9769 0 0 1 224.31439,53.019216 148.9781,148.9769 0 0 1 347.15766,223.22495 Z" />
    <path
       style="fill:#7f7f7f;fill-opacity:1;stroke:#000000;stroke-width:2.00001;stroke-dasharray:none;stroke-dashoffset:0;stroke-opacity:1"
       id="path6122-2"
       sodipodi:type="arc"
       sodipodi:cx="600.00171"
       sodipodi:cy="199.99837"
       sodipodi:rx="198.97058"
       sodipodi:ry="198.96892"
       sodipodi:start="0.18610193"
       sodipodi:end="0.15654302"
       sodipodi:open="true"
       sodipodi:arc-type="chord"
       d="M 795.53666,236.8135 A 198.97058,198.96892 0 0 1 564.63221,395.79839 198.97058,198.96892 0 0 1 403.94402,166.07703 198.97058,198.96892 0 0 1 632.4736,3.6970074 198.97058,198.96892 0 0 1 796.53931,231.0185 Z" />
    <path
       style="fill:#535353;fill-opacity:1;stroke:#e0e0e0;stroke-width:2.00003;stroke-dasharray:none;stroke-dashoffset:0;stroke-opacity:1"
       id="path6351-9"
       sodipodi:type="arc"
       sodipodi:cx="600.00122"
       sodipodi:cy="199.99876"
       sodipodi:rx="148.9781"
       sodipodi:ry="148.97688"
       sodipodi:start="0.18610193"
       sodipodi:end="0.15654302"
       sodipodi:open="true"
       sodipodi:arc-type="chord"
       d="M 746.40691,227.56389 A 148.9781,148.97688 0 0 1 573.51851,346.60296 148.9781,148.97688 0 0 1 453.20413,174.60035 148.9781,148.97688 0 0 1 624.31437,53.0192 148.9781,148.97688 0 0 1 747.15764,223.22492 Z" />
    <path
       style="fill:#636363;fill-opacity:0;stroke:#161616;stroke-width:3.99999;stroke-linecap:round;stroke-linejoin:miter;stroke-miterlimit:4;stroke-dasharray:12;stroke-dashoffset:0;stroke-opacity:1;paint-order:normal"
       id="path15578"
       sodipodi:type="arc"
       sodipodi:cx="300.00424"
       sodipodi:cy="699.99756"
       sodipodi:rx="297.99106"
       sodipodi:ry="297.95221"
       sodipodi:start="0.18610193"
       sodipodi:end="0.15654302"
       sodipodi:open="true"
       sodipodi:arc-type="chord"
       d="M 592.84988,755.12752 A 297.99106,297.95221 0 0 1 247.03263,993.20441 297.99106,297.95221 0 0 1 6.3757233,649.20099 297.99106,297.95221 0 0 1 348.63623,406.03997 297.99106,297.95221 0 0 1 594.35151,746.44963 Z" />
  </g>
</svg>
