<?xml version="1.0" encoding="UTF-8" standalone="no"?>
<!-- Created with Inkscape (http://www.inkscape.org/) -->

<svg
   width="1024"
   height="1024"
   viewBox="0 0 1024 1024"
   version="1.1"
   id="svg5"
   inkscape:version="1.2.1 (1:1.2.1+202210291244+9c6d41e410)"
   sodipodi:docname="ui.svg"
   inkscape:export-filename="../deploy/Data/Textures/ui.png"
   inkscape:export-xdpi="96"
   inkscape:export-ydpi="96"
   xmlns:inkscape="http://www.inkscape.org/namespaces/inkscape"
   xmlns:sodipodi="http://sodipodi.sourceforge.net/DTD/sodipodi-0.dtd"
   xmlns="http://www.w3.org/2000/svg"
   xmlns:svg="http://www.w3.org/2000/svg">
  <sodipodi:namedview
     id="namedview7"
     pagecolor="#ffffff"
     bordercolor="#000000"
     borderopacity="0.25"
     inkscape:showpageshadow="2"
     inkscape:pageopacity="0.0"
     inkscape:pagecheckerboard="false"
     inkscape:deskcolor="#d1d1d1"
     inkscape:document-units="px"
     showgrid="true"
     showborder="true"
     shape-rendering="auto"
     inkscape:lockguides="false"
     inkscape:zoom="2"
     inkscape:cx="545.75"
     inkscape:cy="41.25"
     inkscape:window-width="3072"
     inkscape:window-height="1664"
     inkscape:window-x="0"
     inkscape:window-y="27"
     inkscape:window-maximized="1"
     inkscape:current-layer="layer3">
    <inkscape:grid
       type="xygrid"
       id="grid391"
       originx="0"
       originy="0" />
  </sodipodi:namedview>
  <defs
     id="defs2" />
  <g
     inkscape:groupmode="layer"
     id="layer4"
     inkscape:label="Layer 3"
     style="fill:none;stroke:#000000;stroke-width:2.1;stroke-dasharray:none;stroke-opacity:1" />
  <g
     inkscape:label="Layer 1"
     inkscape:groupmode="layer"
     id="layer1" />
  <g
     inkscape:groupmode="layer"
     id="layer3"
     inkscape:label="Layer 2">
    <rect
       style="fill:#c2c2c2;fill-opacity:0.987812;stroke:#000000;stroke-width:4;stroke-linecap:butt;stroke-linejoin:miter;stroke-miterlimit:4;stroke-dasharray:none"
       id="rect379"
       width="124"
       height="124"
       x="2"
       y="2"
       rx="4"
       ry="4" />
    <path
       sodipodi:type="star"
       style="fill:#484848;fill-opacity:0.462763;stroke:#000000;stroke-width:0.191125;stroke-linecap:butt;stroke-linejoin:miter;stroke-miterlimit:4;stroke-dasharray:none"
       id="path1887"
       inkscape:flatsided="false"
       sodipodi:sides="3"
       sodipodi:cx="49.749077"
       sodipodi:cy="13.51"
       sodipodi:r1="10.758565"
       sodipodi:r2="5.3792825"
       sodipodi:arg1="1.5707963"
       sodipodi:arg2="2.6179939"
       inkscape:rounded="0"
       inkscape:randomized="0"
       d="m 49.749077,24.268565 -4.658595,-8.068924 -4.658596,-8.068923 9.317191,-2e-7 9.31719,-3e-7 -4.658595,8.0689245 z"
       inkscape:transform-center-y="-14.18578"
       transform="matrix(-5.1904983,0,0,-5.2742317,322.2225,145.75198)"
       inkscape:transform-center-x="-2.5837246e-05" />
    <rect
       style="fill:#7e7e7e;fill-opacity:0.987812;stroke:#000000;stroke-width:4;stroke-linecap:butt;stroke-linejoin:miter;stroke-miterlimit:4;stroke-dasharray:none"
       id="rect379-7"
       width="124"
       height="124"
       x="130"
       y="2"
       rx="4"
       ry="4" />
    <path
       sodipodi:type="star"
       style="fill:#0f0f0f;fill-opacity:0.462763;stroke:#000000;stroke-width:0.188091;stroke-linecap:butt;stroke-linejoin:miter;stroke-miterlimit:4;stroke-dasharray:none"
       id="path1887-5"
       inkscape:flatsided="false"
       sodipodi:sides="3"
       sodipodi:cx="49.749077"
       sodipodi:cy="13.51"
       sodipodi:r1="10.758565"
       sodipodi:r2="5.3792825"
       sodipodi:arg1="1.5707963"
       sodipodi:arg2="2.6179939"
       inkscape:rounded="0"
       inkscape:randomized="0"
       d="m 49.749077,24.268565 -4.658595,-8.068924 -4.658596,-8.068923 9.317191,-2e-7 9.31719,-3e-7 -4.658595,8.0689245 z"
       inkscape:transform-center-y="-14.414596"
       transform="matrix(-5.274216,0,0,-5.3593,454.38738,147.07056)"
       inkscape:transform-center-x="-2.7943882e-05" />
    <rect
       style="fill:#c2c2c2;fill-opacity:0.987812;stroke:#000000;stroke-width:4;stroke-linecap:butt;stroke-linejoin:miter;stroke-miterlimit:4;stroke-dasharray:none"
       id="rect379-3"
       width="124"
       height="124"
       x="2"
       y="130"
       rx="4"
       ry="4" />
    <path
       sodipodi:type="star"
       style="fill:#484848;fill-opacity:0.462763;stroke:#000000;stroke-width:0.191125;stroke-linecap:butt;stroke-linejoin:miter;stroke-miterlimit:4;stroke-dasharray:none"
       id="path1887-56"
       inkscape:flatsided="false"
       sodipodi:sides="3"
       sodipodi:cx="49.749077"
       sodipodi:cy="13.51"
       sodipodi:r1="10.758565"
       sodipodi:r2="5.3792825"
       sodipodi:arg1="1.5707963"
       sodipodi:arg2="2.6179939"
       inkscape:rounded="0"
       inkscape:randomized="0"
       d="m 49.749077,24.268565 -4.658595,-8.068924 -4.658596,-8.068923 9.317191,-2e-7 9.31719,-3e-7 -4.658595,8.0689245 z"
       inkscape:transform-center-y="14.185792"
       transform="matrix(5.1904983,0,0,5.2742317,-194.22249,110.24765)"
       inkscape:transform-center-x="1.1390848e-05" />
    <rect
       style="fill:#7e7e7e;fill-opacity:0.987812;stroke:#000000;stroke-width:4;stroke-linecap:butt;stroke-linejoin:miter;stroke-miterlimit:4;stroke-dasharray:none"
       id="rect379-7-2"
       width="124"
       height="124"
       x="130"
       y="130"
       rx="4"
       ry="4" />
    <path
       sodipodi:type="star"
       style="fill:#0f0f0f;fill-opacity:0.462763;stroke:#000000;stroke-width:0.191125;stroke-linecap:butt;stroke-linejoin:miter;stroke-miterlimit:4;stroke-dasharray:none"
       id="path1887-5-9"
       inkscape:flatsided="false"
       sodipodi:sides="3"
       sodipodi:cx="49.749077"
       sodipodi:cy="13.51"
       sodipodi:r1="10.758565"
       sodipodi:r2="5.3792825"
       sodipodi:arg1="1.5707963"
       sodipodi:arg2="2.6179939"
       inkscape:rounded="0"
       inkscape:randomized="0"
       d="m 49.749077,24.268565 -4.658595,-8.068924 -4.658596,-8.068923 9.317191,-2e-7 9.31719,-3e-7 -4.658595,8.0689245 z"
       inkscape:transform-center-y="14.185792"
       transform="matrix(5.1904983,0,0,5.2742317,-66.222498,110.24765)"
       inkscape:transform-center-x="1.0589239e-05" />
    <rect
       style="fill:#c2c2c2;fill-opacity:0.987812;stroke:#000000;stroke-width:4;stroke-linecap:butt;stroke-linejoin:miter;stroke-miterlimit:4;stroke-dasharray:none"
       id="rect379-36"
       width="124"
       height="124"
       x="514"
       y="2"
       rx="4"
       ry="4" />
    <rect
       style="fill:#7e7e7e;fill-opacity:0.987812;stroke:#000000;stroke-width:4;stroke-linecap:butt;stroke-linejoin:miter;stroke-miterlimit:4;stroke-dasharray:none"
       id="rect379-7-5"
       width="124"
       height="124"
       x="642"
       y="2"
       rx="4"
       ry="4" />
    <rect
       style="fill:#c2c2c2;fill-opacity:0.987812;stroke:#000000;stroke-width:4;stroke-linecap:butt;stroke-linejoin:miter;stroke-miterlimit:4;stroke-dasharray:none"
       id="rect379-3-5"
       width="124"
       height="124"
       x="514"
       y="130"
       rx="4"
       ry="4" />
    <rect
       style="fill:#7e7e7e;fill-opacity:0.987812;stroke:#000000;stroke-width:4;stroke-linecap:butt;stroke-linejoin:miter;stroke-miterlimit:4;stroke-dasharray:none"
       id="rect379-7-2-2"
       width="124"
       height="124"
       x="642"
       y="130"
       rx="4"
       ry="4" />
    <rect
       style="fill:#c2c2c2;fill-opacity:0.987812;stroke:#000000;stroke-width:4;stroke-linecap:butt;stroke-linejoin:miter;stroke-miterlimit:4;stroke-dasharray:none"
       id="rect379-1"
       width="124"
       height="124"
       x="258"
       y="2"
       rx="4"
       ry="4" />
    <path
       sodipodi:type="star"
       style="fill:#484848;fill-opacity:0.462763;stroke:#000000;stroke-width:0.191438;stroke-linecap:butt;stroke-linejoin:miter;stroke-miterlimit:4;stroke-dasharray:none"
       id="path1887-2"
       inkscape:flatsided="false"
       sodipodi:sides="3"
       sodipodi:cx="49.749077"
       sodipodi:cy="13.51"
       sodipodi:r1="10.758565"
       sodipodi:r2="5.3792825"
       sodipodi:arg1="1.5707963"
       sodipodi:arg2="2.6179939"
       inkscape:rounded="0"
       inkscape:randomized="0"
       d="m 49.749077,24.268565 -4.658595,-8.068924 -4.658596,-8.068923 9.317191,-2e-7 9.31719,-3e-7 -4.658595,8.0689245 z"
       transform="matrix(0,-5.1820064,5.2656028,0,238.19504,321.80002)"
       inkscape:transform-center-x="-14.162574"
       inkscape:transform-center-y="2.3929011e-06" />
    <rect
       style="fill:#7e7e7e;fill-opacity:0.987812;stroke:#000000;stroke-width:4;stroke-linecap:butt;stroke-linejoin:miter;stroke-miterlimit:4;stroke-dasharray:none"
       id="rect379-7-7"
       width="124"
       height="124"
       x="386"
       y="2"
       rx="4"
       ry="4" />
    <path
       sodipodi:type="star"
       style="fill:#0f0f0f;fill-opacity:0.462763;stroke:#000000;stroke-width:0.191438;stroke-linecap:butt;stroke-linejoin:miter;stroke-miterlimit:4;stroke-dasharray:none"
       id="path1887-5-0"
       inkscape:flatsided="false"
       sodipodi:sides="3"
       sodipodi:cx="49.749077"
       sodipodi:cy="13.51"
       sodipodi:r1="10.758565"
       sodipodi:r2="5.3792825"
       sodipodi:arg1="1.5707963"
       sodipodi:arg2="2.6179939"
       inkscape:rounded="0"
       inkscape:randomized="0"
       d="m 49.749077,24.268565 -4.658595,-8.068924 -4.658596,-8.068923 9.317191,-2e-7 9.31719,-3e-7 -4.658595,8.0689245 z"
       transform="matrix(0,-5.1820064,5.2656028,0,366.19502,321.80002)"
       inkscape:transform-center-x="-14.162584"
       inkscape:transform-center-y="2.3929011e-06" />
    <rect
       style="fill:#c2c2c2;fill-opacity:0.987812;stroke:#000000;stroke-width:4;stroke-linecap:butt;stroke-linejoin:miter;stroke-miterlimit:4;stroke-dasharray:none"
       id="rect379-3-9"
       width="124"
       height="124"
       x="258"
       y="130"
       rx="4"
       ry="4" />
    <path
       sodipodi:type="star"
       style="fill:#484848;fill-opacity:0.462763;stroke:#000000;stroke-width:0.191438;stroke-linecap:butt;stroke-linejoin:miter;stroke-miterlimit:4;stroke-dasharray:none"
       id="path1887-56-3"
       inkscape:flatsided="false"
       sodipodi:sides="3"
       sodipodi:cx="49.749077"
       sodipodi:cy="13.51"
       sodipodi:r1="10.758565"
       sodipodi:r2="5.3792825"
       sodipodi:arg1="1.5707963"
       sodipodi:arg2="2.6179939"
       inkscape:rounded="0"
       inkscape:randomized="0"
       d="m 49.749077,24.268565 -4.658595,-8.068924 -4.658596,-8.068923 9.317191,-2e-7 9.31719,-3e-7 -4.658595,8.0689245 z"
       transform="matrix(0,5.1820064,-5.2656028,0,401.80484,-67.800044)"
       inkscape:transform-center-x="14.162579" />
    <rect
       style="fill:#7e7e7e;fill-opacity:0.987812;stroke:#000000;stroke-width:4;stroke-linecap:butt;stroke-linejoin:miter;stroke-miterlimit:4;stroke-dasharray:none"
       id="rect379-7-2-6"
       width="124"
       height="124"
       x="386"
       y="130"
       rx="4"
       ry="4" />
    <path
       sodipodi:type="star"
       style="fill:#0f0f0f;fill-opacity:0.462763;stroke:#000000;stroke-width:0.191438;stroke-linecap:butt;stroke-linejoin:miter;stroke-miterlimit:4;stroke-dasharray:none"
       id="path1887-5-9-0"
       inkscape:flatsided="false"
       sodipodi:sides="3"
       sodipodi:cx="49.749077"
       sodipodi:cy="13.51"
       sodipodi:r1="10.758565"
       sodipodi:r2="5.3792825"
       sodipodi:arg1="1.5707963"
       sodipodi:arg2="2.6179939"
       inkscape:rounded="0"
       inkscape:randomized="0"
       d="m 49.749077,24.268565 -4.658595,-8.068924 -4.658596,-8.068923 9.317191,-2e-7 9.31719,-3e-7 -4.658595,8.0689245 z"
       inkscape:transform-center-y="-3.5568661e-06"
       transform="matrix(0,5.1820064,-5.2656028,0,529.80481,-67.80004)"
       inkscape:transform-center-x="14.16258" />
    <path
       id="rect436"
       style="fill:#474747;fill-opacity:0.46000001;stroke:#000000;stroke-width:4"
       d="M 568 16 C 565.784 16 564 16.750884 564 17.683594 L 564 52 L 529.68359 52 C 528.75088 52 528 53.784002 528 56 L 528 72 C 528 74.215998 528.75088 76 529.68359 76 L 564 76 L 564 110.31641 C 564 111.24912 565.784 112 568 112 L 584 112 C 586.216 112 588 111.24912 588 110.31641 L 588 76 L 622.31641 76 C 623.24912 76 624 74.215998 624 72 L 624 56 C 624 53.784002 623.24912 52 622.31641 52 L 588 52 L 588 17.683594 C 588 16.750884 586.216 16 584 16 L 568 16 z " />
    <rect
       style="fill:#474747;fill-opacity:0.46000001;stroke:#000000;stroke-width:4"
       id="rect492-7"
       width="24"
       height="95.999992"
       x="-204"
       y="528"
       rx="4"
       ry="1.6835938"
       transform="rotate(-90)" />
    <path
       id="path593"
       style="fill:#0f0f0f;fill-opacity:0.46000001;stroke:#000000;stroke-width:4"
       d="m 696,16 c -2.216,0 -4,0.750884 -4,1.683594 V 52 H 657.68359 C 656.75088,52 656,53.784002 656,56 v 16 c 0,2.215998 0.75088,4 1.68359,4 H 692 v 34.31641 c 0,0.93271 1.784,1.68359 4,1.68359 h 16 c 2.216,0 4,-0.75088 4,-1.68359 V 76 h 34.31641 C 751.24912,76 752,74.215998 752,72 V 56 c 0,-2.215998 -0.75088,-4 -1.68359,-4 H 716 V 17.683594 C 716,16.750884 714.216,16 712,16 Z" />
    <rect
       style="fill:#0f0f0f;fill-opacity:0.46000001;stroke:#000000;stroke-width:4"
       id="rect595"
       width="24"
       height="95.999992"
       x="-204"
       y="656"
       rx="4"
       ry="1.6835938"
       transform="rotate(-90)" />
  </g>
</svg>
