<?xml version="1.0" encoding="UTF-8" standalone="no"?>
<!-- Created with Inkscape (http://www.inkscape.org/) -->

<svg
   width="512"
   height="512"
   viewBox="0 0 512 512"
   version="1.1"
   id="svg5"
   inkscape:version="1.2 (1:1.2.1+202207142221+cd75a1ee6d)"
   sodipodi:docname="UI_items.svg"
   inkscape:export-filename="../deploy/Data/Textures/UI_items.png"
   inkscape:export-xdpi="96"
   inkscape:export-ydpi="96"
   xmlns:inkscape="http://www.inkscape.org/namespaces/inkscape"
   xmlns:sodipodi="http://sodipodi.sourceforge.net/DTD/sodipodi-0.dtd"
   xmlns="http://www.w3.org/2000/svg"
   xmlns:svg="http://www.w3.org/2000/svg">
  <sodipodi:namedview
     id="namedview7"
     pagecolor="#ffffff"
     bordercolor="#000000"
     borderopacity="0.25"
     inkscape:showpageshadow="2"
     inkscape:pageopacity="0.0"
     inkscape:pagecheckerboard="false"
     inkscape:deskcolor="#d1d1d1"
     inkscape:document-units="px"
     showgrid="true"
     showborder="true"
     shape-rendering="auto"
     inkscape:lockguides="false"
     inkscape:zoom="2.8284271"
     inkscape:cx="149.19953"
     inkscape:cy="146.72466"
     inkscape:window-width="2485"
     inkscape:window-height="1385"
     inkscape:window-x="3184"
     inkscape:window-y="114"
     inkscape:window-maximized="0"
     inkscape:current-layer="layer3">
    <inkscape:grid
       type="xygrid"
       id="grid391"
       originx="0"
       originy="0" />
  </sodipodi:namedview>
  <defs
     id="defs2" />
  <g
     inkscape:groupmode="layer"
     id="layer4"
     inkscape:label="Layer 3"
     style="fill:none;stroke:#000000;stroke-opacity:1;stroke-dasharray:none;stroke-width:2.1">
    <path
       style="fill:none;stroke:#000000;stroke-width:4.52517;stroke-dasharray:13.5755;stroke-dashoffset:0;stroke-opacity:1"
       id="path6405"
       sodipodi:type="arc"
       sodipodi:cx="342.9278"
       sodipodi:cy="152.88557"
       sodipodi:rx="150.64122"
       sodipodi:ry="150.60028"
       sodipodi:start="0.18610193"
       sodipodi:end="0.15654302"
       sodipodi:open="true"
       sodipodi:arc-type="chord"
       d="M 490.96789,180.75108 A 150.64122,150.60028 0 0 1 316.14945,301.08731 150.64122,150.60028 0 0 1 194.49194,127.21039 150.64122,150.60028 0 0 1 367.51236,4.3043777 150.64122,150.60028 0 0 1 491.727,176.36483 Z" />
  </g>
  <g
     inkscape:label="Layer 1"
     inkscape:groupmode="layer"
     id="layer1">
    <path
       style="fill:#676767;fill-opacity:1;stroke:#000000;stroke-width:2;stroke-dasharray:none;stroke-dashoffset:0;stroke-opacity:1"
       id="path6122"
       sodipodi:type="arc"
       sodipodi:cx="92.500748"
       sodipodi:cy="92.49929"
       sodipodi:rx="91.486816"
       sodipodi:ry="91.486092"
       sodipodi:start="0.18610193"
       sodipodi:end="0.15654302"
       sodipodi:open="true"
       sodipodi:arc-type="chord"
       d="M 182.40786,109.42692 A 91.486816,91.486092 0 0 1 76.237829,182.52832 91.486816,91.486092 0 0 1 2.3532831,76.902228 91.486816,91.486092 0 0 1 107.43135,2.2397444 91.486816,91.486092 0 0 1 182.86888,106.76238 Z" />
  </g>
  <g
     inkscape:groupmode="layer"
     id="layer3"
     inkscape:label="Layer 2">
    <path
       style="fill:#858585;fill-opacity:1;stroke:#000000;stroke-width:2;stroke-dasharray:none;stroke-dashoffset:0;stroke-opacity:1"
       id="path6351"
       sodipodi:type="arc"
       sodipodi:cx="92.000504"
       sodipodi:cy="91.999428"
       sodipodi:rx="73.989372"
       sodipodi:ry="73.988876"
       sodipodi:start="0.18610193"
       sodipodi:end="0.15654302"
       sodipodi:open="true"
       sodipodi:arc-type="chord"
       d="M 164.7123,105.68956 A 73.989372,73.988876 0 0 1 78.847973,164.80992 73.989372,73.988876 0 0 1 19.094323,79.385389 73.989372,73.988876 0 0 1 104.07553,19.002513 73.989372,73.988876 0 0 1 165.08514,103.53462 Z" />
    <path
       style="fill:#676767;fill-opacity:1;stroke:#000000;stroke-width:2;stroke-dasharray:none;stroke-dashoffset:0;stroke-opacity:1"
       id="path6122-5"
       sodipodi:type="arc"
       sodipodi:cx="92.500748"
       sodipodi:cy="280.4993"
       sodipodi:rx="91.486816"
       sodipodi:ry="91.486092"
       sodipodi:start="0.18610193"
       sodipodi:end="0.15654302"
       sodipodi:open="true"
       sodipodi:arc-type="chord"
       d="M 182.40786,297.42693 A 91.486816,91.486092 0 0 1 76.237829,370.52833 91.486816,91.486092 0 0 1 2.3532831,264.90224 91.486816,91.486092 0 0 1 107.43135,190.23975 91.486816,91.486092 0 0 1 182.86888,294.76239 Z" />
    <path
       style="fill:#494949;fill-opacity:1;stroke:#000000;stroke-width:2;stroke-dasharray:none;stroke-dashoffset:0;stroke-opacity:1"
       id="path6351-6"
       sodipodi:type="arc"
       sodipodi:cx="92.000504"
       sodipodi:cy="279.99942"
       sodipodi:rx="73.989372"
       sodipodi:ry="73.988876"
       sodipodi:start="0.18610193"
       sodipodi:end="0.15654302"
       sodipodi:open="true"
       sodipodi:arc-type="chord"
       d="m 164.7123,293.68955 a 73.989372,73.988876 0 0 1 -85.864327,59.12036 73.989372,73.988876 0 0 1 -59.75365,-85.42453 73.989372,73.988876 0 0 1 84.981207,-60.38287 73.989372,73.988876 0 0 1 61.00961,84.5321 z" />
  </g>
</svg>
